<svg xmlns="http://www.w3.org/2000/svg" viewBox="0 0 900 1100" role="img" aria-labelledby="title">
<title>Abstract neuronal network illustration</title>
<defs>
  <linearGradient id="bg" x1="0" y1="0" x2="1" y2="1">
    <stop offset="0" stop-color="#06111f"/>
    <stop offset=".55" stop-color="#123858"/>
    <stop offset="1" stop-color="#10253d"/>
  </linearGradient>
  <radialGradient id="glow">
    <stop offset="0" stop-color="#59d6da" stop-opacity=".82"/>
    <stop offset=".3" stop-color="#2f86c9" stop-opacity=".4"/>
    <stop offset="1" stop-color="#2f86c9" stop-opacity="0"/>
  </radialGradient>
  <filter id="blur"><feGaussianBlur stdDeviation="22"/></filter>
</defs>
<rect width="900" height="1100" fill="url(#bg)"/>
<circle cx="520" cy="520" r="310" fill="url(#glow)" filter="url(#blur)" opacity=".6"/>
<g fill="none" stroke-linecap="round">
  <path d="M454 603C314 529 236 408 178 247M455 603c44-144 137-234 267-314M454 603c-12 124-89 231-219 318M454 603c116 13 226 88 294 203" stroke="#59d6da" stroke-width="8" opacity=".9"/>
  <path d="M370 522c-17-94 20-165 95-209M516 509c78-45 146-43 218 5M371 690c-63 51-88 119-70 202M571 675c69 26 112 78 127 154" stroke="#ffab6b" stroke-width="4" opacity=".75"/>
  <path d="M455 603c-57-39-81-101-60-164 22-68 92-111 161-91 69 20 111 91 91 160-18 65-80 105-146 94-17-3-32-9-46-19Z" stroke="#fff" stroke-width="3" opacity=".7"/>
</g>
<g fill="#59d6da">
  <circle cx="454" cy="603" r="24"/>
  <circle cx="178" cy="247" r="12"/>
  <circle cx="722" cy="289" r="12"/>
  <circle cx="235" cy="921" r="12"/>
  <circle cx="748" cy="806" r="12"/>
</g>
<g fill="#ffab6b">
  <circle cx="465" cy="313" r="9"/>
  <circle cx="734" cy="514" r="9"/>
  <circle cx="301" cy="892" r="9"/>
  <circle cx="698" cy="829" r="9"/>
</g>
<g opacity=".2" stroke="#fff" stroke-width="1">
  <path d="M0 110h900M0 220h900M0 330h900M0 440h900M0 550h900M0 660h900M0 770h900M0 880h900M0 990h900"/>
  <path d="M90 0v1100M180 0v1100M270 0v1100M360 0v1100M450 0v1100M540 0v1100M630 0v1100M720 0v1100M810 0v1100"/>
</g>
</svg>